# File created by Blade
# Date/Time:  Tue Sep 30 19:07:45 2014
#---------------------------------------------------------
:version 1.10
:name HOM
:units
  mass 1.0
  length 1.000000
  angle deg
:documentation
     Acclaim Skeleton File
:root
   axis xyz
   order TX TY TZ RX RY RZ
   position 0.000000 0.000000 0.000000
   orientation 0 0 0
:bonedata
   begin
      id 1
      name Spine_dum
      direction 0.000000 1.000000 0.000000
      length 7.508948
      axis 0.0 0.0 0.0 xyz
   end
   begin
      id 2
      name LeftUpLeg_dum
      direction 1.000000 0.000000 0.000000
      length 3.000560
      axis 0.0 0.0 0.0 xyz
   end
   begin
      id 3
      name RightUpLeg_dum
      direction -1.000000 0.000000 0.000000
      length 3.000560
      axis 0.0 0.0 0.0 xyz
   end
   begin
      id 4
      name Spine
      direction 0.000000 1.000000 0.000000
      length 0.000000
      axis 0.0 0.0 0.0 xyz
      dof rx ry rz
   end
   begin
      id 5
      name Spine_dum1
      direction 0.000000 1.000000 0.000000
      length 13.861154
      axis 0.0 0.0 0.0 xyz
   end
   begin
      id 6
      name Spine_dum2
      direction 0.000000 1.000000 0.000000
      length 8.204781
      axis 0.0 0.0 0.0 xyz
   end
   begin
      id 7
      name Spine_dum3
      direction 0.000000 1.000000 0.000000
      length 8.204781
      axis 0.0 0.0 0.0 xyz
   end
   begin
      id 8
      name Head
      direction 0.000000 1.000000 0.000000
      length 4.527550
      axis 0.0 0.0 0.0 xyz
      dof rx ry rz
   end
   begin
      id 9
      name LeftShoulder
      direction 1.000000 0.000000 0.000000
      length 6.635956
      axis 0.0 0.0 -90.0 xyz
      dof rx ry rz
   end
   begin
      id 10
      name LeftArm
      direction 1.000000 0.000000 0.000000
      length 10.274218
      axis 0.0 0.0 -90.0 xyz
      dof rx ry rz
   end
   begin
      id 11
      name LeftForeArm
      direction 1.000000 0.000000 0.000000
      length 8.522147
      axis 0.0 0.0 -90.0 xyz
      dof ry rz rx
   end
   begin
      id 12
      name LeftHand
      direction 0.000000 0.000000 0.000000
      length 0.000000
      axis 0.0 0.0 -90.0 xyz
      dof rx ry rz
   end
   begin
      id 13
      name LeftHand_dum1
      direction 0.000000 0.000000 0.000000
      length 0.000000
      axis 0.0 0.0 -90.0 xyz
   end
   begin
      id 14
      name LeftHand_dum2
      direction 1.000000 0.000000 0.000000
      length 3.937000
      axis 0.0 0.0 -90.0 xyz
   end
   begin
      id 15
      name LeftHandThumb1
      direction 0.000000 0.000000 1.000000
      length 3.937000
      axis 0.0 0.0 -90.0 xyz
      dof rx rz ry
   end
   begin
      id 16
      name RightShoulder
      direction -1.000000 0.000000 0.000000
      length 6.635956
      axis 0.0 0.0 90.0 xyz
      dof rx ry rz
   end
   begin
      id 17
      name RightArm
      direction -1.000000 0.000000 0.000000
      length 10.274218
      axis 0.0 0.0 90.0 xyz
      dof rx ry rz
   end
   begin
      id 18
      name RightForeArm
      direction -1.000000 0.000000 0.000000
      length 8.522147
      axis 0.0 0.0 90.0 xyz
      dof ry rz rx
   end
   begin
      id 19
      name RightHand
      direction 0.000000 0.000000 0.000000
      length 0.000000
      axis 0.0 0.0 90.0 xyz
      dof rx ry rz
   end
   begin
      id 20
      name RightHand_dum1
      direction 0.000000 0.000000 0.000000
      length 0.000000
      axis 0.0 0.0 90.0 xyz
   end
   begin
      id 21
      name RightHand_dum2
      direction -1.000000 0.000000 0.000000
      length 3.937000
      axis 0.0 0.0 90.0 xyz
   end
   begin
      id 22
      name RightHandThumb1
      direction 0.000000 0.000000 1.000000
      length 3.937000
      axis 0.0 0.0 90.0 xyz
      dof rx rz ry
   end
   begin
      id 23
      name LeftUpLeg
      direction 0.000000 -1.000000 0.000000
      length 16.490845
      axis 0.0 0.0 0.0 xyz
      dof rx ry rz
   end
   begin
      id 24
      name LeftLeg
      direction 0.000000 -1.000000 0.000000
      length 14.556576
      axis 0.0 0.0 0.0 xyz
      dof rx ry rz
   end
   begin
      id 25
      name LeftFoot
      direction 0.000000 -0.258819 0.965926
      length 4.831116
      axis 15.0 0.0 0.0 xyz
      dof rx ry rz
   end
   begin
      id 26
      name LeftToeBase
      direction 0.000000 0.000000 1.000000
      length 2.952750
      axis 0.0 0.0 0.0 xyz
      dof rx ry rz
   end
   begin
      id 27
      name RightUpLeg
      direction 0.000000 -1.000000 0.000000
      length 16.490845
      axis 0.0 0.0 0.0 xyz
      dof rx ry rz
   end
   begin
      id 28
      name RightLeg
      direction 0.000000 -1.000000 0.000000
      length 14.556576
      axis 0.0 0.0 0.0 xyz
      dof rx ry rz
   end
   begin
      id 29
      name RightFoot
      direction 0.000000 -0.258819 0.965926
      length 4.831116
      axis 15.0 0.0 0.0 xyz
      dof rx ry rz
   end
   begin
      id 30
      name RightToeBase
      direction 0.000000 0.000000 1.000000
      length 2.952750
      axis 0.0 0.0 0.0 xyz
      dof rx ry rz
   end
:hierarchy
   begin
      root Spine_dum LeftUpLeg_dum RightUpLeg_dum
      Spine_dum Spine
      LeftUpLeg_dum LeftUpLeg
      RightUpLeg_dum RightUpLeg
      Spine Spine_dum1 Spine_dum2 Spine_dum3
      Spine_dum1 Head
      Spine_dum2 LeftShoulder
      Spine_dum3 RightShoulder
      LeftShoulder LeftArm
      LeftArm LeftForeArm
      LeftForeArm LeftHand
      LeftHand LeftHand_dum1 LeftHand_dum2
      LeftHand_dum1 LeftHandThumb1
      RightShoulder RightArm
      RightArm RightForeArm
      RightForeArm RightHand
      RightHand RightHand_dum1 RightHand_dum2
      RightHand_dum1 RightHandThumb1
      LeftUpLeg LeftLeg
      LeftLeg LeftFoot
      LeftFoot LeftToeBase
      RightUpLeg RightLeg
      RightLeg RightFoot
      RightFoot RightToeBase
   end

# File created by Blade
# Date/Time:  Thu Sep 25 19:36:54 2014
# Frame Rate: 120.000 fps
#------------------------------------------------------
:FULLY-SPECIFIED
:DEGREES
43
root -2.742954 32.745118 2.735162 11.420808 3.859896 -0.661305
Spine -12.082947 4.241405 -0.873723
Head -16.578638 -3.405604 12.786436
LeftShoulder -14.276063 18.032467 29.211106
LeftArm 16.728835 -24.301234 -27.309434
LeftForeArm 10.291659 -0.000000 12.705669
LeftHand -26.121625 0.000000 -8.643581
LeftHandThumb1 -26.253704 0.000000 33.147579
RightShoulder -20.922037 11.563947 -40.471296
RightArm -8.560471 7.502635 29.073160
RightForeArm -30.024182 -0.000000 14.511169
RightHand -12.433353 -0.000000 6.492058
RightHandThumb1 -24.326973 -0.000000 -32.862282
LeftUpLeg -6.289911 0.494414 0.804666
LeftLeg 0.652412 -0.000000 -0.000000
LeftFoot -11.687394 3.081813 -14.855209
LeftToeBase 9.029160 -0.000000 -0.000000
RightUpLeg -7.398787 -5.340047 -0.482568
RightLeg 2.914496 -0.000000 -0.000000
RightFoot -9.932231 -8.380969 2.820094
RightToeBase -0.370823 -0.000000 0.000000
44
root -2.721600 32.745707 2.727891 11.428574 3.884623 -0.642115
Spine -12.073441 4.232365 -0.889938
Head -16.497057 -3.442215 12.746991
LeftShoulder -14.250587 18.040255 29.186651
LeftArm 16.721834 -24.403661 -27.327263
LeftForeArm 10.399185 -0.000000 12.769607
LeftHand -26.122643 0.000000 -8.634483
LeftHandThumb1 -26.253704 0.000000 33.147579
RightShoulder -20.929844 11.583261 -40.421766
RightArm -8.480575 7.443542 29.025635
RightForeArm -29.890006 -0.000000 14.387931
RightHand -12.142972 -0.000000 6.531538
RightHandThumb1 -24.326973 -0.000000 -32.862282
LeftUpLeg -6.329679 0.485257 0.749215
LeftLeg 0.690969 -0.000000 -0.000000
LeftFoot -11.680515 3.074775 -14.804765
LeftToeBase 9.002554 -0.000000 -0.000000
RightUpLeg -7.409215 -5.362128 -0.536003
RightLeg 2.899499 -0.000000 -0.000000
RightFoot -9.896372 -8.369981 2.835647
RightToeBase -0.414191 -0.000000 0.000000
45
root -2.700502 32.745636 2.719449 11.453209 3.902836 -0.647528
Spine -12.080256 4.226301 -0.901531
Head -16.438123 -3.479444 12.787465
LeftShoulder -14.278898 18.084297 29.174536
LeftArm 16.803208 -24.423928 -27.355622
LeftForeArm 10.346716 0.000000 12.776601
LeftHand -26.172693 -0.000000 -8.485438
LeftHandThumb1 -26.253704 0.000000 33.147579
RightShoulder -20.901342 11.629144 -40.459883
RightArm -8.587858 7.446266 29.093299
RightForeArm -30.078538 -0.000000 14.543710
RightHand -12.503581 -0.000000 6.416955
RightHandThumb1 -24.326973 -0.000000 -32.862282
LeftUpLeg -6.390527 0.487338 0.714858
LeftLeg 0.733995 -0.000000 -0.000000
LeftFoot -11.697281 3.070550 -14.737697
LeftToeBase 9.035994 -0.000000 -0.000000
RightUpLeg -7.431697 -5.397538 -0.565467
RightLeg 2.869799 -0.000000 -0.000000
RightFoot -9.866973 -8.327728 2.867761
RightToeBase -0.399018 -0.000000 0.000000
46
root -2.677540 32.745663 2.711020 11.459018 3.918638 -0.645541
Spine -12.057908 4.229294 -0.904619
Head -16.359945 -3.501011 12.768454
LeftShoulder -14.287462 18.088834 29.159197
LeftArm 16.843185 -24.447287 -27.393018
LeftForeArm 10.366497 -0.000000 12.810407
LeftHand -26.213021 -0.000000 -8.374016
LeftHandThumb1 -26.253704 0.000000 33.147579
RightShoulder -20.894374 11.612269 -40.384948
RightArm -8.551716 7.493546 29.053973
RightForeArm -30.075245 -0.000000 14.567273
RightHand -12.503815 0.000000 6.381439
RightHandThumb1 -24.326973 -0.000000 -32.862282
LeftUpLeg -6.431361 0.464244 0.672664
LeftLeg 0.777173 -0.000000 -0.000000
LeftFoot -11.708839 3.078397 -14.711133
LeftToeBase 8.990785 -0.000000 -0.000000
RightUpLeg -7.447900 -5.409009 -0.609841
RightLeg 2.872970 -0.000000 -0.000000
RightFoot -9.858850 -8.309178 2.949518
RightToeBase -0.402817 -0.000000 0.000000
47
root -2.654265 32.745664 2.701364 11.473172 3.946824 -0.630972
Spine -12.032911 4.219235 -0.921115
Head -16.317211 -3.534853 12.743657
LeftShoulder -14.284250 18.005565 29.135630
LeftArm 16.818719 -24.454062 -27.385778
LeftForeArm 10.474159 -0.000000 12.867046
LeftHand -26.219436 -0.000000 -8.556329
LeftHandThumb1 -26.253704 0.000000 33.147579
RightShoulder -20.912848 11.606826 -40.354591
RightArm -8.505104 7.474235 29.062753
RightForeArm -30.029171 -0.000000 14.516933
RightHand -12.150820 -0.000000 6.462244
RightHandThumb1 -24.326973 -0.000000 -32.862282
LeftUpLeg -6.484805 0.395682 0.623160
LeftLeg 0.826379 -0.000000 -0.000000
LeftFoot -11.724997 3.130578 -14.653808
LeftToeBase 8.969087 -0.000000 -0.000000
RightUpLeg -7.483192 -5.400301 -0.667447
RightLeg 2.899469 -0.000000 -0.000000
RightFoot -9.867403 -8.325987 3.019248
RightToeBase -0.409914 -0.000000 0.000000
48
root -2.628633 32.745498 2.692945 11.485572 3.969573 -0.625803
Spine -12.014078 4.223875 -0.942524
Head -16.265973 -3.542744 12.756159
LeftShoulder -14.273844 18.012550 29.139038
LeftArm 16.848311 -24.518405 -27.464348
LeftForeArm 10.562573 -0.000000 12.923530
LeftHand -26.075236 0.000000 -8.383723
LeftHandThumb1 -26.253704 0.000000 33.147579
RightShoulder -20.906781 11.648615 -40.366915
RightArm -8.584085 7.479312 29.125481
RightForeArm -30.130966 -0.000000 14.660090
RightHand -12.458449 -0.000000 6.371530
RightHandThumb1 -24.326973 -0.000000 -32.862282
LeftUpLeg -6.544845 0.350955 0.576059
LeftLeg 0.903229 -0.000000 -0.000000
LeftFoot -11.770709 3.174869 -14.577934
LeftToeBase 9.014309 -0.000000 -0.000000
RightUpLeg -7.498099 -5.415240 -0.719151
RightLeg 2.889581 -0.000000 -0.000000
RightFoot -9.859538 -8.307845 3.061626
RightToeBase -0.339153 -0.000000 0.000000
49
root -2.599479 32.745566 2.684570 11.496060 3.975250 -0.608069
Spine -11.998173 4.247690 -0.972689
Head -16.211953 -3.606322 12.754995
LeftShoulder -14.247711 17.972459 29.120828
LeftArm 16.842989 -24.522162 -27.485327
LeftForeArm 10.424659 -0.000000 13.016170
LeftHand -26.273216 -0.000000 -8.354023
LeftHandThumb1 -26.253704 0.000000 33.147579
RightShoulder -20.907631 11.673567 -40.300116
RightArm -8.580137 7.481032 29.095446
RightForeArm -30.122277 -0.000000 14.696791
RightHand -12.533401 -0.000000 6.340238
RightHandThumb1 -24.326973 -0.000000 -32.862282
LeftUpLeg -6.591412 0.304218 0.508826
LeftLeg 0.949305 -0.000000 -0.000000
LeftFoot -11.784091 3.183605 -14.522914
LeftToeBase 9.031335 -0.000000 -0.000000
RightUpLeg -7.523829 -5.433483 -0.791122
RightLeg 2.903863 -0.000000 -0.000000
RightFoot -9.851185 -8.276985 3.123461
RightToeBase -0.354706 -0.000000 0.000000
